<?xml version="1.0" standalone="no"?>
<!DOCTYPE svg PUBLIC "-//W3C//DTD SVG 1.0//EN" "http://www.w3.org/TR/2001/REC-SVG-20010904/DTD/svg10.dtd">
<svg xmlns="http://www.w3.org/2000/svg" xmlns:xlink="http://www.w3.org/1999/xlink" id="body_1" width="1024" height="768">

<g transform="matrix(1.3333334 0 0 1.3333334 0 0)">
	<path  d="M0 0L768 0L768 576L0 576z" stroke="none"  fill="#FFFFFF" fill-rule="evenodd" />
	<g transform="matrix(0.99999994 0 0 0.99999994 0 0)">
		<g transform="matrix(0.28828126 0 0 0.2875 -0 25.875)">
			<path  d="M100.59 34.08C 100.59 35.280003 100.59 36.620003 100.59 38.08C 100.59 39.54 100.59 40.84 100.59 41.93C 100.59 43.420002 100.59 44.93 100.59 46.42C 100.59 47.909996 100.59 49.309998 100.59 50.559998C 99.927605 50.664093 99.25987 50.730865 98.59 50.76C 97.45 50.829998 96.49 50.87 95.7 50.87C 92.74341 50.906136 89.795845 50.53601 86.939995 49.77C 84.27451 48.990746 81.81761 47.623905 79.74999 45.77C 78.26213 44.47027 77.06888 42.867897 76.24999 41.07C 75.348236 39.037712 74.90115 36.833027 74.939995 34.61C 74.895805 32.098488 75.52049 29.62043 76.74999 27.43C 78.01375 25.269615 79.78917 23.452984 81.91999 22.14C 83.890816 20.867895 86.06086 19.934978 88.33999 19.38C 91.0074 18.706493 93.74886 18.37053 96.499985 18.38L96.499985 18.38L97.499985 18.38L98.34998 18.38L99.12998 24.949999L97.29 24.949999C 95.71816 24.95973 94.14968 25.09685 92.6 25.359999C 91.053185 25.596327 89.54379 26.033346 88.11 26.659998C 86.3926 27.393501 84.91139 28.587467 83.83 30.109999C 82.80716 31.545952 82.26145 33.26703 82.270004 35.03C 82.20537 36.780064 82.63512 38.512936 83.51 40.03C 84.28728 41.327297 85.3727 42.412724 86.670006 43.19C 87.70266 43.832096 88.824875 44.317383 90 44.63C 91.23098 44.94432 92.49087 45.131966 93.76 45.190002C 93.76 44.890003 93.76 43.820004 93.76 41.99C 93.76 40.16 93.76 37.510002 93.700005 34.08L93.700005 34.08L100.59 34.08z" stroke="none"  fill="#E86C6E" fill-rule="nonzero" />
			<path  d="M113.16 50.58L106.54 50.58C 106.54 49.480003 106.54 47.140003 106.54 43.58C 106.54 40.02 106.54 36.33 106.54 32.510002C 106.54 30.320002 106.54 27.800003 106.54 24.930002C 106.54 22.060001 106.54 19.010002 106.48 15.760002L106.48 15.760002L113.100006 15.760002C 113.100006 18.410002 113.100006 21.180002 113.100006 24.080002C 113.100006 26.980001 113.100006 29.690002 113.100006 32.22C 113.10001 36.340004 113.10001 39.96667 113.100006 43.100002C 113.100006 45.188892 113.12 47.682224 113.16 50.58z" stroke="none"  fill="#E86C6E" fill-rule="nonzero" />
			<path  d="M141.34 38.49C 141.3291 40.292778 140.99025 42.078537 140.34 43.760002C 139.72194 45.406197 138.75674 46.900036 137.51 48.140003C 136.5116 49.150936 135.31718 49.94722 134 50.48C 132.5994 51.002403 131.1148 51.263393 129.62 51.25C 128.1322 51.25741 126.65525 50.99657 125.259995 50.48C 123.905426 49.966213 122.672615 49.176125 121.63999 48.16C 120.41264 46.93537 119.46137 45.462433 118.84999 43.84C 118.18706 42.12039 117.848015 40.292965 117.84999 38.45C 117.82763 36.71381 118.11199 34.98731 118.68999 33.350002C 119.265015 31.79582 120.153404 30.376438 121.29999 29.180002C 122.331894 28.059704 123.594154 27.176125 125 26.59C 126.44793 26.0027 127.99756 25.707048 129.56 25.72C 131.09682 25.702946 132.62321 25.974306 134.06 26.519999C 135.45651 27.076305 136.71555 27.929302 137.75 29.019999C 138.9199 30.236395 139.82855 31.679327 140.42 33.26C 141.0397 34.93355 141.35138 36.70544 141.34 38.49zM134.76 38.59C 134.76024 37.457577 134.60547 36.33045 134.29999 35.24C 134.0298 34.206596 133.51537 33.253197 132.79999 32.460003C 132.39984 32.02429 131.90804 31.682753 131.35999 31.460003C 130.80426 31.23413 130.20987 31.118649 129.60999 31.120003C 128.9669 31.102892 128.3281 31.229288 127.73998 31.490004C 127.15231 31.783953 126.63412 32.199875 126.219986 32.710003C 125.59825 33.456657 125.14768 34.330486 124.89999 35.270004C 124.596214 36.30616 124.44133 37.380245 124.43999 38.460003C 124.42759 39.612934 124.582535 40.761562 124.89999 41.870003C 125.196884 42.878742 125.73191 43.801323 126.459984 44.56C 126.85168 44.99635 127.33717 45.33825 127.87998 45.56C 128.43219 45.77168 129.01859 45.880146 129.60999 45.88C 130.23628 45.879387 130.85577 45.750042 131.43 45.5C 132.00443 45.247448 132.51646 44.87196 132.93 44.4C 133.55458 43.64178 134.0174 42.76377 134.29 41.82C 134.60526 40.77244 134.76364 39.683968 134.76 38.59z" stroke="none"  fill="#E86C6E" fill-rule="nonzero" />
			<path  d="M162.44 45.05L161.79001 50.8L160.59001 50.8C 158.41373 50.834244 156.2422 50.585495 154.13 50.059998C 152.3982 49.615604 150.75006 48.89286 149.25 47.92C 147.66777 46.929813 146.36353 45.553288 145.46 43.92C 144.55763 42.235844 144.09662 40.35053 144.12001 38.44C 144.08252 36.614784 144.52383 34.811596 145.40001 33.21C 146.24203 31.692188 147.4184 30.385876 148.84001 29.39C 150.4012 28.287624 152.14954 27.477827 154 27C 156.14922 26.448303 158.3612 26.179365 160.58 26.2L160.58 26.2L161.58 26.2L162.16 31.970001L161.34 31.970001C 160.28648 31.969555 159.23415 32.03971 158.19 32.18C 157.16699 32.33182 156.16191 32.58644 155.19 32.94C 154.00488 33.375084 152.96553 34.133812 152.19 35.129997C 150.70978 37.132847 150.70978 39.867146 152.19 41.869995C 152.95587 42.82155 153.95491 43.55877 155.09 44.009995C 156.07953 44.41779 157.11847 44.693497 158.18 44.829994C 159.21288 44.986137 160.25542 45.069675 161.29999 45.079994L161.29999 45.079994L162.58998 45.079994L162.44 45.05z" stroke="none"  fill="#E86C6E" fill-rule="nonzero" />
			<path  d="M185 38C 185 41.88 185 44.88 185 47C 185 49.1 185 50.32 185 50.65C 184.77 50.65 183.84 50.760002 182.2 50.88C 180.56 51 178.83 51 177 51C 175.61734 50.98634 174.23727 50.87607 172.87 50.67C 171.53479 50.49794 170.23137 50.134193 169 49.59C 167.77132 49.028492 166.70483 48.164986 165.9 47.08C 165.14313 46.015793 164.75029 44.73556 164.78 43.43C 164.74152 42.036674 165.16327 40.669502 165.98 39.54C 166.95883 38.326797 168.25278 37.406506 169.72 36.88C 171.07071 36.341675 172.48059 35.965706 173.92 35.760002C 175.59332 35.493336 177.10333 35.303337 178.45 35.190002C 178.43604 34.446968 178.22185 33.72147 177.83 33.090004C 177.3751 32.47814 176.73236 32.032074 176 31.82C 175.38144 31.603619 174.74089 31.45606 174.09 31.38C 173.26352 31.284761 172.43192 31.241343 171.59999 31.25C 170.71999 31.25 169.98 31.25 169.35999 31.3L169.35999 31.3L167.35999 31.39L167.93999 26.099998L169.31999 26.039999C 169.95999 26.039999 170.84999 26.039999 171.99998 26.039999C 174.04523 25.994083 176.08722 26.226204 178.06999 26.73C 179.57794 27.147657 180.96126 27.926846 182.1 29C 183.12323 29.970673 183.88948 31.180178 184.33 32.52C 184.84222 34.29965 185.06837 36.149376 185 38zM178.75 42.38L178.75 40.57C 178.75 39.9 178.75 39.19 178.75 38.45C 178.00543 38.49739 177.2642 38.58754 176.53 38.72C 175.54587 38.867485 174.5868 39.150154 173.68 39.56C 173.0755 39.84114 172.53711 40.246635 172.09999 40.75C 171.61464 41.30099 171.35721 42.016075 171.37999 42.75C 171.33974 43.505016 171.56238 44.250652 172.01 44.86C 172.45241 45.392582 173.01906 45.80813 173.65999 46.07C 174.19676 46.271027 174.75313 46.41515 175.31999 46.5C 175.98245 46.594406 176.65085 46.64119 177.31999 46.64L177.31999 46.64L178.73999 46.64C 178.73999 46.43 178.73999 45.95 178.73999 45.19C 178.73999 44.429996 178.78 43.47 178.78 42.34z" stroke="none"  fill="#E86C6E" fill-rule="nonzero" />
			<path  d="M197.69 50.58L191.07 50.58C 191.07 49.480003 191.07 47.140003 191.07 43.58C 191.07 40.02 191.07 36.33 191.07 32.510002C 191.07 30.320002 191.07 27.800003 191.07 24.930002C 191.07 22.060001 191.07 19.010002 191.02 15.760002L191.02 15.760002L197.64 15.760002C 197.64 18.410002 197.64 21.180002 197.59 24.080002C 197.54 26.980001 197.59 29.690002 197.59 32.22C 197.59 36.340004 197.59 39.96667 197.59 43.100002C 197.59 45.188892 197.62334 47.682224 197.69 50.58z" stroke="none"  fill="#E86C6E" fill-rule="nonzero" />
			<path  d="M237.07 25.31L233.62001 25.31C 231.93335 25.31 229.88669 25.31 227.48001 25.31C 227.48003 27.796667 227.4567 29.796667 227.41 31.31C 227.41 32.809998 227.41 34.76 227.41 37.15C 227.41 39.85667 227.41 42.473335 227.41 45C 227.41 47.53 227.41 49.41 227.47 50.64L227.47 50.64L220.33 50.64C 220.33 49.46 220.33 47.64 220.33 45.22C 220.33 42.800003 220.33 40.09 220.33 37.13L220.33 37.13L220.33 31.49C 220.33 29.95 220.33 27.88 220.33 25.26C 217.98 25.26 215.87 25.26 214.02 25.26L214.02 25.26L210.72 25.26L210.72 18.83L237.04001 18.83L237.07 25.31z" stroke="none"  fill="#E86C6E" fill-rule="nonzero" />
			<path  d="M261.78 38.49C 261.78506 40.2897 261.46317 42.075356 260.83 43.760002C 260.21194 45.40619 259.24673 46.900036 258 48.14C 256.98404 49.157772 255.7686 49.954453 254.43 50.48C 253.02939 51.002403 251.5448 51.263393 250.04999 51.25C 248.56221 51.25741 247.08527 50.99657 245.68999 50.48C 244.33543 49.966213 243.10262 49.176125 242.06999 48.16C 240.84575 46.93286 239.89494 45.460636 239.28 43.84C 238.61707 42.12039 238.27803 40.292965 238.28 38.45C 238.25764 36.71381 238.542 34.98731 239.12 33.350002C 239.695 31.79582 240.58339 30.376438 241.73 29.180002C 242.76768 28.057337 244.03699 27.17361 245.45 26.590002C 246.89792 26.0027 248.44756 25.707048 250.01 25.720001C 251.54681 25.70295 253.07321 25.97431 254.51 26.52C 255.9065 27.07631 257.1655 27.929306 258.19998 29.02C 259.3699 30.236393 260.27853 31.679323 260.87 33.260002C 261.4863 34.93418 261.7946 36.706055 261.78 38.49zM255.2 38.59C 255.20024 37.457577 255.04547 36.33045 254.73999 35.24C 254.4698 34.206596 253.95537 33.253197 253.23999 32.460003C 252.83984 32.02429 252.34804 31.682753 251.79999 31.460003C 251.24455 31.233139 250.64996 31.117619 250.04999 31.120003C 249.40692 31.102894 248.7681 31.22929 248.18 31.490004C 247.59233 31.78395 247.07413 32.19987 246.65999 32.710003C 246.03824 33.45666 245.58768 34.33049 245.33998 35.270004C 245.03621 36.306156 244.88132 37.380245 244.87997 38.460003C 244.86758 39.612934 245.02254 40.76156 245.33998 41.870003C 245.63687 42.878742 246.1719 43.801323 246.89998 44.56C 247.29167 44.99635 247.77718 45.33825 248.31998 45.56C 248.87218 45.77168 249.45857 45.880142 250.04997 45.88C 250.67627 45.879387 251.29576 45.750042 251.86998 45.5C 252.44441 45.247448 252.95645 44.87196 253.36998 44.4C 253.99458 43.64178 254.45741 42.76377 254.72998 41.82C 255.04526 40.772446 255.20366 39.683968 255.2 38.59z" stroke="none"  fill="#E86C6E" fill-rule="nonzero" />
			<path  d="M287.52 50.58L281.06998 50.58L281.06998 48.280003C 279.82364 49.028 278.53107 49.696007 277.19998 50.280003C 275.8218 50.914112 274.3268 51.254658 272.80997 51.280003C 270.9633 51.393234 269.16605 50.656662 267.92996 49.280003C 266.69296 47.68074 266.07507 45.688572 266.18997 43.670002C 266.18997 42.170002 266.18997 40.54 266.18997 38.79C 266.18997 37.04 266.18997 35.79 266.18997 34.95C 266.18997 33.48 266.18997 31.79 266.18997 29.880001C 266.18997 27.970001 266.13998 26.820002 266.13998 26.400002L266.13998 26.400002L272.75998 26.400002C 272.75998 26.800001 272.75998 27.900002 272.75998 29.720001C 272.75998 31.54 272.75998 33.050003 272.75998 34.27C 272.75998 35.27 272.75998 36.45 272.75998 37.920002C 272.75998 39.390003 272.75998 40.47 272.75998 41.15C 272.71103 42.2551 272.9163 43.356705 273.36 44.370003C 273.76636 45.13236 274.58957 45.577442 275.44998 45.500004C 276.51004 45.464577 277.55014 45.201996 278.49997 44.730003C 279.3615 44.358685 280.18253 43.89959 280.94998 43.360004C 280.94998 43.250004 280.94998 42.450005 280.94998 40.960003C 280.94998 39.47 280.94998 37.800003 280.94998 35.960003C 280.94998 34.340004 280.94998 32.460003 280.94998 30.320004C 280.94998 28.180004 280.94998 26.880003 280.94998 26.430004L280.94998 26.430004L287.56998 26.430004C 287.56998 26.850004 287.56998 28.030005 287.56998 29.980003C 287.56998 31.930002 287.56998 34.440002 287.56998 37.480003C 287.56998 39.58 287.56998 41.480003 287.56998 43.120003C 287.56998 44.760002 287.5 47.2 287.52 50.58z" stroke="none"  fill="#E86C6E" fill-rule="nonzero" />
			<path  d="M310 31.75C 308.82 32.14 307.5 32.64 306 33.25C 304.5 33.86 302.63 34.73 300.29 35.91C 300.29 36.3 300.29 37.02 300.29 38.07C 300.29 39.12 300.29 40.17 300.29 41.25C 300.29 42.93 300.29 44.8 300.29 46.88C 300.29 48.960003 300.34 50.190002 300.34 50.58L300.34 50.58L293.72 50.58C 293.72 50.11 293.72 48.920002 293.72 47.02C 293.72 45.12 293.72 42.58 293.72 39.4C 293.72 37.88 293.72 35.960003 293.72 33.65C 293.72 31.34 293.72 28.900002 293.72 26.330002L293.72 26.330002L300.18 26.330002L300.18 29.830002L300.22998 29.830002C 301.63913 28.865849 303.10507 27.987625 304.62 27.2C 305.8015 26.56128 307.0281 26.009804 308.29 25.550001L308.29 25.550001L310 31.75z" stroke="none"  fill="#E86C6E" fill-rule="nonzero" />
			<path  d="M33.23 47.06C 33.76469 47.329235 34.395313 47.329235 34.93 47.06C 36.395195 46.27128 37.761425 45.311222 39 44.2C 41.22 42.420002 44.7 39.75 49.739998 43.09C 52.739998 45.31 54.329998 46.64 54.329998 46.64L54.329998 46.64L54.26 32.79C 54.297848 31.932638 53.9751 31.098572 53.37 30.490002C 52.26 29.380001 48.55 25.980001 46.699997 26.120003L46.699997 26.120003L47.819996 22.380003C 47.819996 22.380003 55.069996 25.010002 57.819996 30.640003C 58.419994 32.120003 58.049995 48.72 58.049995 48.72C 58.049995 48.72 57.969994 52.420002 54.269997 50.870003C 50.559998 48.570004 48.559998 46.320004 46.709995 45.590004C 45.545746 44.96358 44.121178 45.08524 43.079994 45.900005C 41.899994 46.570004 36.709995 51.260006 34.189995 51.250004L34.189995 51.250004L34 51.250004C 31.48 51.250004 26.29 46.570004 25.11 45.900005C 24.068823 45.08524 22.644255 44.96358 21.48 45.590004C 19.63 46.320004 17.63 48.590004 13.92 50.870003C 10.22 52.420002 10.14 48.72 10.14 48.72C 10.14 48.72 9.77 32.120003 10.37 30.640001C 13.11 25.010002 20.369999 22.380001 20.369999 22.380001L20.369999 22.380001L21.49 26.12C 19.64 25.980001 15.93 29.380001 14.82 30.490002C 14.214899 31.09857 13.892152 31.932636 13.929999 32.79L13.929999 32.79L13.86 46.64C 13.86 46.64 15.49 45.309998 18.45 43.09C 23.45 39.75 26.970001 42.420002 29.19 44.2C 30.419205 45.30926 31.7753 46.26927 33.23 47.06z" stroke="none"  fill="#E86C6E" fill-rule="nonzero" />
			<path  d="M34.11 6.75L34.05 6.75C 33.13 6.75 22.119999 7.18 22.419998 16.970001C 22.719997 26.600002 28.909998 34.39 31.64 36.910004C 31.908436 37.155796 32.196014 37.37984 32.5 37.58C 32.956745 37.886806 33.500473 38.037647 34.05 38.010002L34.05 38.010002L34.11 38.010002C 34.65953 38.037647 35.20326 37.886806 35.66 37.58C 35.96398 37.37984 36.251564 37.155796 36.52 36.910004C 39.26 34.39 45.44 26.6 45.74 17C 46 7.18 35 6.77 34.11 6.75zM34.11 22.83C 31.733555 22.846191 29.582645 21.425507 28.664783 19.23341C 27.746922 17.041315 28.24388 14.51193 29.922874 12.830049C 31.601871 11.148167 34.1304 10.646868 36.32407 11.5609665C 38.51774 12.475065 39.942112 14.62353 39.93 17C 39.913513 20.22077 37.300808 22.824545 34.08 22.83z" stroke="none"  fill="#E86C6E" fill-rule="nonzero" />
		</g>
	</g>
</g>
</svg>
