<svg id="Layer_1" data-name="Layer 1" xmlns="http://www.w3.org/2000/svg" viewBox="0 0 1000 170"><defs><style>.cls-1{fill:#e86c6e;}</style></defs><path class="cls-1" d="M311.88,100.08q-.08,5.7-.17,12.73T311.6,125q0,7.06.11,14.23t.1,13.11a55.13,55.13,0,0,1-6.28.61c-3.6.24-6.65.37-9.15.37a101.75,101.75,0,0,1-27.75-3.5,58.88,58.88,0,0,1-22.76-12.6,43.47,43.47,0,0,1-11.06-14.89,47.94,47.94,0,0,1-4.17-20.46,44.78,44.78,0,0,1,5.74-22.71,48.32,48.32,0,0,1,16.38-16.78,66.27,66.27,0,0,1,20.31-8.72,103.54,103.54,0,0,1,25.84-3c1.18,0,2.24,0,3.17,0s1.83,0,2.7,0l2.46,20.83h-5.81a93,93,0,0,0-14.88,1.28A56.51,56.51,0,0,0,272.35,77a32,32,0,0,0-13.55,10.9,26.54,26.54,0,0,0-5,15.57q0,9.41,3.93,15.79a29,29,0,0,0,10,10,41,41,0,0,0,10.55,4.25,59.83,59.83,0,0,0,11.91,1.77c0-1,0-4.34,0-10.16s-.08-14.16-.17-25Z"/><path class="cls-1" d="M351.68,152.35h-21q0-5.26.1-22.19t.1-35q0-10.38,0-24t-.17-29h21q-.07,12.55-.14,26.32t-.07,25.8q0,19.56.1,34.45T351.68,152.35Z"/><path class="cls-1" d="M440.9,114.07a46.44,46.44,0,0,1-3,16.65A38.73,38.73,0,0,1,429,144.6,32.44,32.44,0,0,1,417.62,152a38.23,38.23,0,0,1-13.86,2.44A38.79,38.79,0,0,1,390,152a32.75,32.75,0,0,1-11.47-7.33A38.29,38.29,0,0,1,369.66,131a49.38,49.38,0,0,1-.44-33.21,38.37,38.37,0,0,1,8.26-13.2,33.46,33.46,0,0,1,11.78-8.2,37.43,37.43,0,0,1,14.43-2.78A38.46,38.46,0,0,1,418,76.16a33,33,0,0,1,11.67,7.9,39.18,39.18,0,0,1,8.47,13.42A47.18,47.18,0,0,1,440.9,114.07Zm-20.82.3a39.3,39.3,0,0,0-1.47-10.61,21.07,21.07,0,0,0-4.74-8.8,12.61,12.61,0,0,0-4.58-3.2,14.58,14.58,0,0,0-5.53-1.09,13.77,13.77,0,0,0-5.9,1.17A14.83,14.83,0,0,0,393,95.71a20.81,20.81,0,0,0-4.19,8.13,35.83,35.83,0,0,0-1.47,10.07,37.66,37.66,0,0,0,1.47,10.8,20.34,20.34,0,0,0,4.95,8.53,11.78,11.78,0,0,0,4.5,3.13,15,15,0,0,0,5.46,1,14.34,14.34,0,0,0,5.77-1.2,13.33,13.33,0,0,0,4.74-3.46,23.08,23.08,0,0,0,4.31-8.2A34.4,34.4,0,0,0,420.08,114.37Z"/><path class="cls-1" d="M507.73,134.82,505.68,153h-3.82a79.35,79.35,0,0,1-20.45-2.34A52.79,52.79,0,0,1,466,143.92a34.88,34.88,0,0,1-12-12.74,35.53,35.53,0,0,1-4.27-17.34,33.31,33.31,0,0,1,4.07-16.58,36.2,36.2,0,0,1,10.88-12.08A50,50,0,0,1,481,77.59,79.16,79.16,0,0,1,501.86,75h3.07l1.84,18.28h-2.59a73.23,73.23,0,0,0-10,.67,46.27,46.27,0,0,0-9.62,2.41,21.1,21.1,0,0,0-9.66,6.92,16.72,16.72,0,0,0-3.59,10.45,17,17,0,0,0,3.45,10.91,22.52,22.52,0,0,0,9.18,6.77,37.77,37.77,0,0,0,9.8,2.59,71.53,71.53,0,0,0,9.86.79h4.1Z"/><path class="cls-1" d="M579.27,112.37q0,18.42,0,28.41t0,11.57c-.73.1-3.68.34-8.87.72s-10.7.56-16.52.56a92.14,92.14,0,0,1-13.08-1.06,43.12,43.12,0,0,1-12.25-3.38,25.25,25.25,0,0,1-9.83-7.94,19.18,19.18,0,0,1-3.55-11.54,20.16,20.16,0,0,1,3.79-12.34q3.79-5.1,11.84-8.42a59.61,59.61,0,0,1,13.32-3.53q7.91-1.29,14.33-1.81A13,13,0,0,0,556.44,97a11.18,11.18,0,0,0-5.91-4,28,28,0,0,0-6-1.39,64,64,0,0,0-7.89-.41c-2.77,0-5.14.05-7.09.15l-6.35.3L525,74.8c.91,0,2.37-.11,4.37-.18s4.82-.12,8.46-.12a71.79,71.79,0,0,1,19.22,2.18A30.29,30.29,0,0,1,570,83.9a26.89,26.89,0,0,1,7.06,11.16Q579.27,101.63,579.27,112.37Zm-19.8,13.88v-5.6q0-3.2-.06-6.74c-1.33.06-3.67.34-7,.87a33,33,0,0,0-9,2.67,14.68,14.68,0,0,0-5,3.76,9.12,9.12,0,0,0-2.29,6.32,10.3,10.3,0,0,0,2,6.69,13.08,13.08,0,0,0,5.22,3.84,25.07,25.07,0,0,0,5.26,1.35,42,42,0,0,0,6.35.45l2.05,0c.77,0,1.59,0,2.46,0q0-1,0-4.59T559.47,126.25Z"/><path class="cls-1" d="M619.34,152.35h-21q0-5.26.11-22.19t.1-35q0-10.38,0-24t-.17-29h21q-.06,12.55-.13,26.32t-.07,25.8q0,19.56.1,34.45T619.34,152.35Z"/><path class="cls-1" d="M744.06,72.32q-2.87,0-10.92-.07t-19.46-.08q-.13,11.81-.2,19t-.07,18.5q0,12.86.1,24.86t.17,17.86H691.09q.06-5.64.13-17.19t.07-25.61V91.88q0-7.3-.13-19.71-11.2,0-20,.08t-10.44.07V51.79q5.32,0,17.41,0l24.09,0q13.86,0,26.53,0l15.32,0Z"/><path class="cls-1" d="M822.29,114.07a46.65,46.65,0,0,1-3,16.65,38.73,38.73,0,0,1-8.94,13.88A32.48,32.48,0,0,1,799,152a38.21,38.21,0,0,1-13.85,2.44A38.75,38.75,0,0,1,771.37,152a32.57,32.57,0,0,1-11.47-7.33A38.29,38.29,0,0,1,751.06,131a49.3,49.3,0,0,1-.45-33.21,38.52,38.52,0,0,1,8.26-13.2,33.55,33.55,0,0,1,11.78-8.2,37.45,37.45,0,0,1,14.44-2.78,38.5,38.5,0,0,1,14.27,2.56A33.1,33.1,0,0,1,811,84.06a39,39,0,0,1,8.46,13.42A47,47,0,0,1,822.29,114.07Zm-20.82.3A39.3,39.3,0,0,0,800,103.76a21.07,21.07,0,0,0-4.74-8.8,12.66,12.66,0,0,0-4.57-3.2,14.61,14.61,0,0,0-5.53-1.09,13.79,13.79,0,0,0-5.91,1.17,14.81,14.81,0,0,0-4.81,3.87,21,21,0,0,0-4.2,8.13,35.83,35.83,0,0,0-1.47,10.07,37.66,37.66,0,0,0,1.47,10.8,20.55,20.55,0,0,0,5,8.53,11.74,11.74,0,0,0,4.51,3.13,14.91,14.91,0,0,0,5.46,1,14.3,14.3,0,0,0,5.76-1.2,13.28,13.28,0,0,0,4.75-3.46,23.07,23.07,0,0,0,4.3-8.2A34.4,34.4,0,0,0,801.47,114.37Z"/><path class="cls-1" d="M903.8,152.35H883.39v-7.3l-.07-.07a106.49,106.49,0,0,1-12.25,6.24,34.49,34.49,0,0,1-13.89,3.23q-10,0-15.47-6.46t-5.49-17.75q0-7.16.1-15.46t.1-12.15q0-7-.13-16.06c-.1-6-.14-9.71-.14-11h21q0,1.88-.11,10.49t-.1,14.4q0,4.59.07,11.58t.07,10.23q.06,6.63,1.91,10.19t6.62,3.58a23.33,23.33,0,0,0,9.66-2.45,43.65,43.65,0,0,0,7.75-4.32q0-.52.07-7.6t.07-15.94q0-7.68-.14-17.87t-.14-12.29h21q0,1.95-.1,11.24t-.1,23.73q0,10,.06,17.86T903.8,152.35Z"/><path class="cls-1" d="M975,92.7q-5.6,1.89-12.56,4.74t-18.09,8.43q0,1.88,0,6.84t0,10.08q0,8,.14,17.83c.09,6.56.13,10.48.13,11.73H923.6q0-2.26.1-11.28t.1-24.15q0-7.22-.07-18.2t-.13-23.16h20.48l-.07,11,.13.08a135.2,135.2,0,0,1,13.93-8.31,81.77,81.77,0,0,1,11.61-5.23Z"/><path class="cls-1" d="M98.55,141.2a6.06,6.06,0,0,0,5.41,0c5.49-2.72,9.51-6.36,12.9-9.07,7-5.63,18.06-14.07,34-3.52,9.38,7,14.55,11.26,14.55,11.26L165.18,96a9.72,9.72,0,0,0-2.81-7.28c-3.52-3.52-15.25-14.31-21.12-13.84L144.8,63s23,8.33,31.64,26.16c1.88,4.69.71,57.24.71,57.24s-.24,11.73-12,6.81c-11.73-7.28-18.06-14.42-23.93-16.71s-7.74-1.12-11.49,1-20.18,17-28.15,16.92h-.71c-8,0-24.4-14.81-28.15-16.92s-5.63-3.29-11.5-1S49.06,146,37.33,153.25c-11.73,4.92-12-6.81-12-6.81s-1.17-52.55.71-57.24C34.75,71.37,57.71,63,57.71,63l3.54,11.85c-5.86-.47-17.59,10.32-21.11,13.84A9.72,9.72,0,0,0,37.33,96l-.24,43.86s5.16-4.22,14.55-11.26c16-10.55,27-2.11,34,3.52C89,134.84,93.06,138.48,98.55,141.2Z"/><path class="cls-1" d="M101.35,13.55h-.19c-2.9,0-37.77,1.34-36.81,32.37.94,30.49,20.52,55.16,29.19,63.12a22.36,22.36,0,0,0,2.71,2.14,8.32,8.32,0,0,0,4.91,1.36h.19a8.32,8.32,0,0,0,4.91-1.36A23.16,23.16,0,0,0,109,109c8.67-8,28.25-32.63,29.19-63.12C139.12,14.89,104.25,13.6,101.35,13.55Zm-.11,50.9a18.53,18.53,0,1,1,18.53-18.53A18.53,18.53,0,0,1,101.24,64.45Z"/></svg>