<svg id="Layer_1" data-name="Layer 1" xmlns="http://www.w3.org/2000/svg" viewBox="0 0 500 85"><defs><style>.cls-1{fill:#e86c6e;}</style></defs><path class="cls-1" d="M155,49.62c0,1.92,0,4.07-.09,6.43s-.05,4.43-.05,6.17q0,3.57.05,7.19c0,2.42,0,4.63,0,6.62a24.77,24.77,0,0,1-3.17.31c-1.82.13-3.36.19-4.62.19a51.25,51.25,0,0,1-14-1.77,29.8,29.8,0,0,1-11.5-6.36A22,22,0,0,1,116,60.87a24.27,24.27,0,0,1-2.11-10.34,22.66,22.66,0,0,1,2.9-11.47,24.37,24.37,0,0,1,8.28-8.48,33.52,33.52,0,0,1,10.26-4.4,52.12,52.12,0,0,1,13.06-1.53l1.6,0c.47,0,.92,0,1.36,0l1.24,10.53h-2.93a47,47,0,0,0-7.52.65A28.33,28.33,0,0,0,135,38a16.12,16.12,0,0,0-6.85,5.51,13.38,13.38,0,0,0-2.5,7.86,15,15,0,0,0,2,8,14.76,14.76,0,0,0,5.06,5.06A20.65,20.65,0,0,0,138,66.51a29.86,29.86,0,0,0,6,.9c0-.48,0-2.19,0-5.13s0-7.16-.09-12.66Z"/><path class="cls-1" d="M175.06,76H164.47q0-2.66.05-11.21t0-17.71q0-5.23,0-12.12t-.08-14.67h10.59q0,6.34-.07,13.3t0,13q0,9.89.06,17.4T175.06,76Z"/><path class="cls-1" d="M220.14,56.69a23.61,23.61,0,0,1-1.52,8.42,19.63,19.63,0,0,1-4.52,7,16.43,16.43,0,0,1-5.72,3.74,20.29,20.29,0,0,1-14,0,16.52,16.52,0,0,1-5.8-3.7,19.25,19.25,0,0,1-4.46-6.92,25,25,0,0,1-.23-16.78,19.55,19.55,0,0,1,4.18-6.67A17,17,0,0,1,194,37.65a18.87,18.87,0,0,1,7.3-1.4,19.55,19.55,0,0,1,7.21,1.29,16.77,16.77,0,0,1,5.9,4,19.7,19.7,0,0,1,4.27,6.78A23.62,23.62,0,0,1,220.14,56.69Zm-10.52.15a20.08,20.08,0,0,0-.74-5.36,10.71,10.71,0,0,0-2.4-4.44,6.28,6.28,0,0,0-2.31-1.62,7.47,7.47,0,0,0-2.8-.55,7,7,0,0,0-3,.59,7.39,7.39,0,0,0-2.43,2,10.52,10.52,0,0,0-2.12,4.1,18,18,0,0,0-.74,5.09,18.87,18.87,0,0,0,.74,5.46,10.32,10.32,0,0,0,2.5,4.31A5.9,5.9,0,0,0,198.62,68a7.5,7.5,0,0,0,2.75.51,7.15,7.15,0,0,0,2.92-.61,6.68,6.68,0,0,0,2.4-1.74A11.76,11.76,0,0,0,208.86,62,17.5,17.5,0,0,0,209.62,56.84Z"/><path class="cls-1" d="M253.91,67.18l-1,9.2h-1.93a40.39,40.39,0,0,1-10.33-1.18,26.89,26.89,0,0,1-7.81-3.42,17.7,17.7,0,0,1-6.06-6.44,18,18,0,0,1-2.15-8.76,16.84,16.84,0,0,1,2-8.38,18.27,18.27,0,0,1,5.5-6.1,25.27,25.27,0,0,1,8.28-3.84A40.15,40.15,0,0,1,250.94,37h1.55l.93,9.23h-1.31a38.05,38.05,0,0,0-5,.34,23.63,23.63,0,0,0-4.87,1.22,10.73,10.73,0,0,0-4.88,3.5,8.43,8.43,0,0,0-1.81,5.28,8.63,8.63,0,0,0,1.74,5.51,11.38,11.38,0,0,0,4.64,3.42,19.16,19.16,0,0,0,4.95,1.31,35.92,35.92,0,0,0,5,.4h2.07Z"/><path class="cls-1" d="M290.05,55.84q0,9.3,0,14.35c0,3.36,0,5.31,0,5.84-.37.06-1.86.18-4.49.37s-5.4.28-8.34.28a47.81,47.81,0,0,1-6.61-.53,22.14,22.14,0,0,1-6.19-1.71,12.82,12.82,0,0,1-5-4,9.76,9.76,0,0,1-1.79-5.83,10.24,10.24,0,0,1,1.91-6.24,13.73,13.73,0,0,1,6-4.25,29.9,29.9,0,0,1,6.72-1.79q4-.65,7.25-.91a6.48,6.48,0,0,0-1-3.36,5.58,5.58,0,0,0-3-2,14.36,14.36,0,0,0-3-.7,32.59,32.59,0,0,0-4-.21c-1.4,0-2.59,0-3.58.08l-3.21.15.93-8.48,2.21-.09c1,0,2.44-.06,4.28-.06a36.42,36.42,0,0,1,9.71,1.1,15.35,15.35,0,0,1,6.53,3.65,13.62,13.62,0,0,1,3.57,5.64A27.94,27.94,0,0,1,290.05,55.84Zm-10,7V60c0-1.08,0-2.21,0-3.41-.67,0-1.86.18-3.56.44a16.73,16.73,0,0,0-4.55,1.35,7.53,7.53,0,0,0-2.54,1.9,4.62,4.62,0,0,0-1.15,3.19,5.23,5.23,0,0,0,1,3.39,6.53,6.53,0,0,0,2.64,1.93,12,12,0,0,0,2.65.69,21.44,21.44,0,0,0,3.21.23l1,0c.39,0,.81,0,1.25,0,0-.33,0-1.1,0-2.32S280.05,64.65,280.05,62.85Z"/><path class="cls-1" d="M310.3,76H299.71q0-2.66.05-11.21t.05-17.71q0-5.23,0-12.12c0-4.58,0-9.47-.09-14.67H310.3q0,6.34-.07,13.3t0,13q0,9.89.05,17.4T310.3,76Z"/><path class="cls-1" d="M373.31,35.6c-1,0-2.8,0-5.51,0s-6,0-9.83,0c-.05,4-.08,7.17-.11,9.58s0,5.52,0,9.35q0,6.49.05,12.56t.09,9H346.55c0-1.9.05-4.79.07-8.68s0-8.2,0-12.94V45.48q0-3.69-.07-10c-3.77,0-7.14,0-10.1,0l-5.28,0V25.23H340q6.11,0,12.17,0,7,0,13.4,0h7.74Z"/><path class="cls-1" d="M412.84,56.69a23.4,23.4,0,0,1-1.52,8.42,19.6,19.6,0,0,1-4.51,7,16.38,16.38,0,0,1-5.73,3.74,19.18,19.18,0,0,1-7,1.24,19.48,19.48,0,0,1-7-1.24,16.57,16.57,0,0,1-5.79-3.7,19.41,19.41,0,0,1-4.47-6.92,24.87,24.87,0,0,1-.22-16.78,19.37,19.37,0,0,1,4.17-6.67,16.91,16.91,0,0,1,5.95-4.14,18.82,18.82,0,0,1,7.29-1.4,19.47,19.47,0,0,1,7.21,1.29,16.68,16.68,0,0,1,5.9,4,19.72,19.72,0,0,1,4.28,6.78A23.84,23.84,0,0,1,412.84,56.69Zm-10.52.15a19.69,19.69,0,0,0-.74-5.36,10.48,10.48,0,0,0-2.4-4.44,6.28,6.28,0,0,0-2.31-1.62,7.42,7.42,0,0,0-2.79-.55,7,7,0,0,0-3,.59,7.52,7.52,0,0,0-2.44,2,10.66,10.66,0,0,0-2.12,4.1,18.33,18.33,0,0,0-.74,5.09,19.22,19.22,0,0,0,.74,5.46,10.43,10.43,0,0,0,2.5,4.31A6.05,6.05,0,0,0,391.32,68a7.51,7.51,0,0,0,2.76.51,7.13,7.13,0,0,0,2.91-.61,6.68,6.68,0,0,0,2.4-1.74A11.6,11.6,0,0,0,401.56,62,17.17,17.17,0,0,0,402.32,56.84Z"/><path class="cls-1" d="M454,76H443.71V72.35l0,0a54,54,0,0,1-6.19,3.15,17.46,17.46,0,0,1-7,1.64,9.68,9.68,0,0,1-7.81-3.27c-1.86-2.18-2.78-5.17-2.78-9q0-3.61.05-7.81c0-2.8.05-4.84.05-6.14,0-2.35,0-5.06-.07-8.11s-.07-4.91-.07-5.57h10.59c0,.64,0,2.4-.05,5.3s-.05,5.33-.05,7.28q0,2.32,0,5.85c0,2.36,0,4.08,0,5.17a11.7,11.7,0,0,0,1,5.15,3.44,3.44,0,0,0,3.35,1.81,11.68,11.68,0,0,0,4.88-1.24,22.2,22.2,0,0,0,3.92-2.18q0-.27,0-3.84t0-8.06q0-3.87-.06-9t-.07-6.22H454c0,.66,0,2.56-.06,5.69s-.05,7.12-.05,12q0,5.06,0,9T454,76Z"/><path class="cls-1" d="M490,45.9c-1.89.63-4,1.43-6.35,2.39s-5.39,2.38-9.14,4.26c0,.63,0,1.78,0,3.46s0,3.37,0,5.09c0,2.68,0,5.69.07,9s.07,5.29.07,5.92H464c0-.76,0-2.66.05-5.7s.05-7.1.05-12.2q0-3.65,0-9.19T464,37.23h10.35l0,5.59.07,0a65.77,65.77,0,0,1,7-4.2A40.47,40.47,0,0,1,487.31,36Z"/><path class="cls-1" d="M47.16,70.4a3,3,0,0,0,2.73,0,34.29,34.29,0,0,0,6.52-4.58C60,63,65.54,58.71,73.6,64,78.34,67.6,81,69.73,81,69.73l-.12-22.16a4.9,4.9,0,0,0-1.42-3.68c-1.78-1.78-7.71-7.23-10.67-7l1.79-6s11.6,4.21,16,13.22c1,2.37.35,28.92.35,28.92s-.11,5.93-6,3.44c-5.93-3.68-9.13-7.29-12.09-8.44s-3.91-.57-5.81.5S52.74,77.12,48.71,77.1h-.36c-4,0-12.33-7.49-14.22-8.55s-2.85-1.66-5.81-.5-6.17,4.76-12.09,8.44c-5.93,2.49-6.05-3.44-6.05-3.44s-.59-26.55.36-28.92c4.38-9,16-13.22,16-13.22l1.79,6c-3-.24-8.89,5.21-10.67,7a4.9,4.9,0,0,0-1.42,3.68l-.12,22.16S18.72,67.6,23.46,64c8.06-5.33,13.63-1.07,17.19,1.78A34.51,34.51,0,0,0,47.16,70.4Z"/><path class="cls-1" d="M48.58,5.9h-.1c-1.47,0-19.08.68-18.6,16.36.48,15.4,10.37,27.87,14.75,31.89A11,11,0,0,0,46,55.23a4.2,4.2,0,0,0,2.48.69h.1a4.2,4.2,0,0,0,2.48-.69,12.74,12.74,0,0,0,1.37-1.08c4.38-4,14.27-16.49,14.75-31.89C67.66,6.58,50,5.93,48.58,5.9Zm-.06,25.72a9.36,9.36,0,1,1,9.36-9.36A9.36,9.36,0,0,1,48.52,31.62Z"/></svg>