<svg id="Layer_1" data-name="Layer 1" xmlns="http://www.w3.org/2000/svg" viewBox="0 0 320 60"><defs><style>.cls-1{fill:#e86c6e;}</style></defs><path class="cls-1" d="M100.59,34.08c0,1.2,0,2.54,0,4s0,2.76,0,3.85c0,1.49,0,3,0,4.49s0,2.89,0,4.14a17.89,17.89,0,0,1-2,.2c-1.14.07-2.1.11-2.89.11a32.29,32.29,0,0,1-8.76-1.1,18.58,18.58,0,0,1-7.19-4,13.88,13.88,0,0,1-3.5-4.7,15.27,15.27,0,0,1-1.31-6.46,14.16,14.16,0,0,1,1.81-7.18,15.27,15.27,0,0,1,5.17-5.29,21,21,0,0,1,6.42-2.76,32.87,32.87,0,0,1,8.16-1h1l.85,0,.78,6.57H97.29a29.09,29.09,0,0,0-4.69.41,18,18,0,0,0-4.49,1.3,10.13,10.13,0,0,0-4.28,3.45,8.41,8.41,0,0,0-1.56,4.92,9.32,9.32,0,0,0,1.24,5,9.19,9.19,0,0,0,3.16,3.16A12.29,12.29,0,0,0,90,44.63a18.64,18.64,0,0,0,3.76.56c0-.3,0-1.37,0-3.2s0-4.48-.06-7.91Z"/><path class="cls-1" d="M113.16,50.58h-6.62c0-1.1,0-3.44,0-7s0-7.25,0-11.07c0-2.19,0-4.71,0-7.58s0-5.92-.06-9.17h6.62c0,2.65,0,5.42,0,8.32s0,5.61,0,8.14q0,6.18,0,10.88T113.16,50.58Z"/><path class="cls-1" d="M141.34,38.49a14.86,14.86,0,0,1-1,5.27,12.25,12.25,0,0,1-2.83,4.38A10.43,10.43,0,0,1,134,50.48a12.22,12.22,0,0,1-4.38.77,12.38,12.38,0,0,1-4.36-.77,10.44,10.44,0,0,1-3.62-2.32,12.16,12.16,0,0,1-2.79-4.32,14.94,14.94,0,0,1-1-5.39,14.75,14.75,0,0,1,.84-5.1,12.09,12.09,0,0,1,2.61-4.17A10.55,10.55,0,0,1,125,26.59a11.87,11.87,0,0,1,4.56-.87,12.29,12.29,0,0,1,4.5.8,10.38,10.38,0,0,1,3.69,2.5,12.37,12.37,0,0,1,2.67,4.24A14.79,14.79,0,0,1,141.34,38.49Zm-6.58.1a12.41,12.41,0,0,0-.46-3.35,6.67,6.67,0,0,0-1.5-2.78,4,4,0,0,0-1.44-1,4.62,4.62,0,0,0-1.75-.34,4.33,4.33,0,0,0-1.87.37,4.62,4.62,0,0,0-1.52,1.22,6.65,6.65,0,0,0-1.32,2.56,11.39,11.39,0,0,0-.46,3.19,11.92,11.92,0,0,0,.46,3.41,6.56,6.56,0,0,0,1.56,2.69,3.88,3.88,0,0,0,1.42,1,4.83,4.83,0,0,0,1.73.32,4.57,4.57,0,0,0,1.82-.38,4.29,4.29,0,0,0,1.5-1.1,7.2,7.2,0,0,0,1.36-2.58A11.08,11.08,0,0,0,134.76,38.59Z"/><path class="cls-1" d="M162.44,45.05l-.65,5.75h-1.2a25.12,25.12,0,0,1-6.46-.74,16.51,16.51,0,0,1-4.88-2.14,11,11,0,0,1-3.79-4,11.31,11.31,0,0,1-1.34-5.48,10.45,10.45,0,0,1,1.28-5.23,11.44,11.44,0,0,1,3.44-3.82A15.79,15.79,0,0,1,154,27a25.51,25.51,0,0,1,6.58-.8h1l.58,5.77h-.82a23.58,23.58,0,0,0-3.15.21,15.38,15.38,0,0,0-3,.76,6.75,6.75,0,0,0-3,2.19,5.67,5.67,0,0,0,0,6.74,7.08,7.08,0,0,0,2.9,2.14,12.19,12.19,0,0,0,3.09.82,22.35,22.35,0,0,0,3.12.25h1.29Z"/><path class="cls-1" d="M185,38q0,5.82,0,9c0,2.1,0,3.32,0,3.65-.23,0-1.16.11-2.8.23S178.83,51,177,51a29.68,29.68,0,0,1-4.13-.33A14,14,0,0,1,169,49.59a8,8,0,0,1-3.1-2.51,6.06,6.06,0,0,1-1.12-3.65,6.34,6.34,0,0,1,1.2-3.89,8.49,8.49,0,0,1,3.74-2.66,18.36,18.36,0,0,1,4.2-1.12q2.51-.4,4.53-.57a4.13,4.13,0,0,0-.62-2.1A3.49,3.49,0,0,0,176,31.82a8.92,8.92,0,0,0-1.91-.44,19.94,19.94,0,0,0-2.49-.13c-.88,0-1.62,0-2.24.05l-2,.09.58-5.29,1.38-.06c.64,0,1.53,0,2.68,0a22.59,22.59,0,0,1,6.07.69A9.62,9.62,0,0,1,182.1,29a8.52,8.52,0,0,1,2.23,3.52A17.48,17.48,0,0,1,185,38Zm-6.25,4.38V40.57c0-.67,0-1.38,0-2.12a19.47,19.47,0,0,0-2.22.27,10.81,10.81,0,0,0-2.85.84,4.74,4.74,0,0,0-1.58,1.19,2.89,2.89,0,0,0-.72,2,3.27,3.27,0,0,0,.63,2.11,4.22,4.22,0,0,0,1.65,1.21,8.19,8.19,0,0,0,1.66.43,14,14,0,0,0,2,.14h1.42c0-.21,0-.69,0-1.45S178.78,43.47,178.78,42.34Z"/><path class="cls-1" d="M197.69,50.58h-6.62c0-1.1,0-3.44,0-7s0-7.25,0-11.07c0-2.19,0-4.71,0-7.58s0-5.92-.05-9.17h6.62c0,2.65,0,5.42-.05,8.32s0,5.61,0,8.14q0,6.18,0,10.88T197.69,50.58Z"/><path class="cls-1" d="M237.07,25.31l-3.45,0q-2.53,0-6.14,0,0,3.73-.07,6c0,1.5,0,3.45,0,5.84q0,4.06,0,7.85c0,2.53,0,4.41.06,5.64h-7.14c0-1.18,0-3,0-5.42s0-5.13,0-8.09V31.49c0-1.54,0-3.61,0-6.23-2.35,0-4.46,0-6.31,0l-3.3,0V18.83h26.32Z"/><path class="cls-1" d="M261.78,38.49a14.86,14.86,0,0,1-.95,5.27A12.25,12.25,0,0,1,258,48.14a10.43,10.43,0,0,1-3.57,2.34,12.22,12.22,0,0,1-4.38.77,12.38,12.38,0,0,1-4.36-.77,10.44,10.44,0,0,1-3.62-2.32,12.29,12.29,0,0,1-2.79-4.32,14.94,14.94,0,0,1-1-5.39,14.75,14.75,0,0,1,.84-5.1,12.09,12.09,0,0,1,2.61-4.17,10.55,10.55,0,0,1,3.72-2.59,11.87,11.87,0,0,1,4.56-.87,12.29,12.29,0,0,1,4.5.8,10.38,10.38,0,0,1,3.69,2.5,12.37,12.37,0,0,1,2.67,4.24A14.79,14.79,0,0,1,261.78,38.49Zm-6.58.1a12.41,12.41,0,0,0-.46-3.35,6.67,6.67,0,0,0-1.5-2.78,4,4,0,0,0-1.44-1,4.58,4.58,0,0,0-1.75-.34,4.33,4.33,0,0,0-1.87.37,4.62,4.62,0,0,0-1.52,1.22,6.65,6.65,0,0,0-1.32,2.56,11.39,11.39,0,0,0-.46,3.19,11.92,11.92,0,0,0,.46,3.41,6.56,6.56,0,0,0,1.56,2.69,3.88,3.88,0,0,0,1.42,1,4.83,4.83,0,0,0,1.73.32,4.57,4.57,0,0,0,1.82-.38,4.29,4.29,0,0,0,1.5-1.1,7.2,7.2,0,0,0,1.36-2.58A11.08,11.08,0,0,0,255.2,38.59Z"/><path class="cls-1" d="M287.52,50.58h-6.45v-2.3l0,0a34.3,34.3,0,0,1-3.87,2,10.94,10.94,0,0,1-4.39,1,6.06,6.06,0,0,1-4.88-2,8.39,8.39,0,0,1-1.74-5.61c0-1.5,0-3.13,0-4.88s0-3,0-3.84c0-1.47,0-3.16,0-5.07s-.05-3.06-.05-3.48h6.62c0,.4,0,1.5,0,3.32s0,3.33,0,4.55c0,1,0,2.18,0,3.65s0,2.55,0,3.23a7.23,7.23,0,0,0,.6,3.22,2.15,2.15,0,0,0,2.09,1.13,7.41,7.41,0,0,0,3.05-.77,13.66,13.66,0,0,0,2.45-1.37c0-.11,0-.91,0-2.4s0-3.16,0-5c0-1.62,0-3.5,0-5.64s0-3.44,0-3.89h6.62c0,.42,0,1.6,0,3.55s0,4.46,0,7.5c0,2.1,0,4,0,5.64S287.5,47.2,287.52,50.58Z"/><path class="cls-1" d="M310,31.75c-1.18.39-2.5.89-4,1.5s-3.37,1.48-5.71,2.66c0,.39,0,1.11,0,2.16s0,2.1,0,3.18c0,1.68,0,3.55,0,5.63s.05,3.31.05,3.7h-6.62c0-.47,0-1.66,0-3.56s0-4.44,0-7.62c0-1.52,0-3.44,0-5.75s0-4.75,0-7.32h6.46l0,3.5.05,0a42.46,42.46,0,0,1,4.39-2.63,27.55,27.55,0,0,1,3.67-1.65Z"/><path class="cls-1" d="M33.23,47.06a1.89,1.89,0,0,0,1.7,0A21,21,0,0,0,39,44.2c2.22-1.78,5.7-4.45,10.74-1.11,3,2.22,4.59,3.55,4.59,3.55l-.07-13.85a3.07,3.07,0,0,0-.89-2.3c-1.11-1.11-4.82-4.51-6.67-4.37l1.12-3.74s7.25,2.63,10,8.26c.6,1.48.23,18.08.23,18.08s-.08,3.7-3.78,2.15c-3.71-2.3-5.71-4.55-7.56-5.28a3.33,3.33,0,0,0-3.63.31c-1.18.67-6.37,5.36-8.89,5.35H34c-2.52,0-7.71-4.68-8.89-5.35a3.33,3.33,0,0,0-3.63-.31c-1.85.73-3.85,3-7.56,5.28-3.7,1.55-3.78-2.15-3.78-2.15s-.37-16.6.23-18.08c2.74-5.63,10-8.26,10-8.26l1.12,3.74c-1.85-.14-5.56,3.26-6.67,4.37a3.07,3.07,0,0,0-.89,2.3l-.07,13.85s1.63-1.33,4.59-3.55c5-3.34,8.52-.67,10.74,1.11A21,21,0,0,0,33.23,47.06Z"/><path class="cls-1" d="M34.11,6.75h-.06c-.92,0-11.93.43-11.63,10.22.3,9.63,6.49,17.42,9.22,19.94a6.86,6.86,0,0,0,.86.67,2.55,2.55,0,0,0,1.55.43h.06a2.55,2.55,0,0,0,1.55-.43,6.86,6.86,0,0,0,.86-.67C39.26,34.39,45.44,26.6,45.74,17,46,7.18,35,6.77,34.11,6.75Zm0,16.08A5.86,5.86,0,1,1,39.93,17,5.86,5.86,0,0,1,34.08,22.83Z"/></svg>