<?xml version="1.0" encoding="utf-8"?>
<!-- Generator: Adobe Illustrator 25.4.0, SVG Export Plug-In . SVG Version: 6.00 Build 0)  -->
<svg version="1.1" xmlns="http://www.w3.org/2000/svg" xmlns:xlink="http://www.w3.org/1999/xlink" x="0px" y="0px"
	 viewBox="0 0 2956 732" style="enable-background:new 0 0 2956 732;" xml:space="preserve">
<style type="text/css">
	.st0{opacity:0.15;}
	.st1{fill:none;stroke:#000000;stroke-width:2;stroke-miterlimit:10;}
	
		.st2{clip-path:url(#SVGID_00000150789565881331652980000012654251290017218979_);fill:none;stroke:#000000;stroke-width:2;stroke-miterlimit:10;}
	
		.st3{clip-path:url(#SVGID_00000061469920640257379880000005793842233477142407_);fill:none;stroke:#000000;stroke-width:2;stroke-miterlimit:10;}
	.st4{display:none;}
	.st5{display:inline;fill:none;stroke:#000000;stroke-width:48;stroke-miterlimit:10;}
	.st6{stroke:#000000;stroke-width:2;stroke-miterlimit:10;}
	.st7{fill:#E86C6E;}
</style>
<g id="Layer_1">
</g>
<g id="pin">
</g>
<g id="lines_1" class="st4">
</g>
<g id="lines_2">
</g>
<g id="pin2">
	<g>
		<g>
			<path class="st7" d="M977.65,400.76c-0.12,10.12-0.27,21.41-0.45,33.86s-0.27,23.27-0.27,32.46c0,12.52,0.09,25.14,0.27,37.86
				c0.18,12.72,0.27,24.34,0.27,34.86c-1.57,0.43-7.14,0.98-16.7,1.62c-9.56,0.65-17.67,0.98-24.33,0.98
				c-27.36,0-51.96-3.1-73.81-9.3c-21.85-6.2-42.03-17.37-60.55-33.51c-12.23-10.53-22.03-23.74-29.41-39.61
				c-7.38-15.87-11.08-34.01-11.08-54.41c0-22.54,5.08-42.68,15.25-60.41c10.17-17.74,24.69-32.61,43.58-44.61
				c15.25-10.13,33.25-17.87,54.02-23.21c20.76-5.33,43.67-8,68.72-8c3.15,0,5.96,0.03,8.44,0.1c2.48,0.07,4.87,0.1,7.17,0.1
				l6.54,55.41c-1.21,0-3.39,0-6.54,0c-3.15,0-6.11,0-8.9,0c-12.47,0-25.66,1.13-39.58,3.4c-13.92,2.27-26.51,5.94-37.77,11
				c-15.25,6.8-27.27,16.47-36.04,29.01c-8.78,12.54-13.16,26.34-13.16,41.41c0,16.67,3.48,30.67,10.44,42.01
				c6.96,11.34,15.82,20.21,26.6,26.61c8.47,4.94,17.82,8.7,28.05,11.3c10.23,2.6,20.79,4.17,31.68,4.7
				c0-2.53-0.03-11.53-0.09-27.01c-0.06-15.47-0.21-37.67-0.45-66.62H977.65z"/>
			<path class="st7" d="M1083.5,539.79h-55.74c0-9.33,0.09-29.01,0.27-59.01s0.27-61.08,0.27-93.22c0-18.4-0.03-39.67-0.09-63.81
				c-0.06-24.14-0.21-49.88-0.45-77.22h55.74c-0.12,22.27-0.24,45.61-0.36,70.02c-0.12,24.41-0.18,47.28-0.18,68.62
				c0,34.68,0.09,65.21,0.27,91.62S1083.5,524.18,1083.5,539.79z"/>
			<path class="st7" d="M1320.8,437.97c0,15.47-2.66,30.24-7.99,44.31c-5.33,14.07-13.25,26.37-23.78,36.91
				c-8.84,8.8-18.88,15.37-30.14,19.7c-11.26,4.33-23.54,6.5-36.86,6.5c-12.95,0-25.18-2.17-36.68-6.5
				c-11.5-4.33-21.67-10.83-30.5-19.5c-10.17-10-18.01-22.14-23.51-36.41c-5.51-14.27-8.26-29.41-8.26-45.41
				c0-15.73,2.36-30.04,7.08-42.91c4.72-12.87,12.04-24.57,21.97-35.11c8.96-9.6,19.4-16.87,31.32-21.8
				c11.92-4.93,24.72-7.4,38.4-7.4c13.8,0,26.45,2.27,37.95,6.8c11.5,4.54,21.85,11.54,31.05,21
				c10.05,10.54,17.55,22.44,22.51,35.71C1318.32,407.13,1320.8,421.83,1320.8,437.97z M1265.43,438.77c0-9.47-1.3-18.87-3.9-28.21
				c-2.6-9.33-6.81-17.14-12.62-23.41c-3.39-3.73-7.44-6.57-12.17-8.5c-4.72-1.93-9.62-2.9-14.71-2.9c-6.05,0-11.29,1.03-15.71,3.1
				c-4.42,2.07-8.69,5.5-12.8,10.3c-4.84,5.47-8.56,12.67-11.17,21.61c-2.6,8.94-3.9,17.87-3.9,26.81c0,10.4,1.3,19.97,3.9,28.71
				c2.6,8.74,6.99,16.3,13.16,22.71c3.39,3.74,7.38,6.5,11.98,8.3c4.6,1.8,9.44,2.7,14.53,2.7c5.33,0,10.44-1.07,15.34-3.2
				c4.9-2.13,9.11-5.2,12.62-9.2c4.96-5.87,8.77-13.13,11.44-21.8C1264.09,457.1,1265.43,448.1,1265.43,438.77z"/>
			<path class="st7" d="M1498.56,493.18l-5.45,48.41c-1.45,0-3,0-4.63,0s-3.48,0-5.54,0c-20.82,0-38.95-2.07-54.38-6.2
				c-15.43-4.13-29.14-10.13-41.12-18c-13.68-8.8-24.3-20.1-31.87-33.91c-7.57-13.8-11.35-29.17-11.35-46.11
				c0-16.54,3.6-31.24,10.8-44.11c7.2-12.87,16.85-23.57,28.96-32.11c12.35-8.93,26.87-15.67,43.58-20.21
				c16.7-4.53,35.16-6.8,55.38-6.8c2.18,0,3.78,0,4.81,0c1.03,0,2.15,0,3.36,0l4.9,48.61c-1.21,0-2.42,0-3.63,0
				c-1.21,0-2.3,0-3.27,0c-8.96,0-17.79,0.6-26.51,1.8s-17.25,3.33-25.6,6.4c-10.77,4-19.34,10.14-25.69,18.4
				c-6.35,8.27-9.53,17.54-9.53,27.81c0,11.6,3.06,21.27,9.17,29.01c6.11,7.74,14.25,13.74,24.42,18c7.38,3.2,16.07,5.5,26.05,6.9
				c9.99,1.4,18.73,2.1,26.24,2.1c1.94,0,3.93,0,5.99,0C1495.71,493.18,1497.34,493.18,1498.56,493.18z"/>
			<path class="st7" d="M1688.84,433.47c0,32.65-0.03,57.83-0.09,75.55c-0.06,17.72-0.09,27.98-0.09,30.78
				c-1.94,0.28-9.8,0.92-23.6,1.91c-13.8,0.99-28.45,1.49-43.94,1.49c-10.17,0-21.76-0.93-34.77-2.8c-13.01-1.87-23.88-4.87-32.59-9
				c-11.14-5.33-19.85-12.37-26.15-21.1c-6.29-8.73-9.44-18.97-9.44-30.71c0-12.8,3.36-23.74,10.08-32.81
				c6.72-9.07,17.22-16.54,31.5-22.41c9.56-4,21.36-7.13,35.41-9.4c14.04-2.27,26.75-3.87,38.13-4.8c-0.36-7.2-2.09-13.1-5.17-17.7
				c-3.09-4.6-8.32-8.17-15.71-10.7c-4.84-1.73-10.2-2.97-16.07-3.7c-5.87-0.73-12.86-1.1-20.97-1.1c-7.38,0-13.68,0.13-18.88,0.4
				c-5.21,0.27-10.83,0.54-16.89,0.8l4.9-44.61c2.42-0.13,6.29-0.3,11.62-0.5c5.33-0.2,12.83-0.3,22.51-0.3
				c20.45,0,37.49,1.93,51.11,5.8c13.62,3.86,25.08,10.26,34.41,19.19c8.59,8.13,14.86,18.02,18.79,29.68
				C1686.87,399.06,1688.84,414.42,1688.84,433.47z M1636.18,470.37c0-4.27,0-9.23,0-14.9c0-5.67-0.06-11.63-0.18-17.9
				c-3.51,0.13-9.75,0.9-18.7,2.3c-8.96,1.4-16.95,3.77-23.97,7.1c-4.84,2.13-9.29,5.47-13.35,10c-4.06,4.54-6.08,10.14-6.08,16.8
				c0,7.47,1.78,13.4,5.36,17.8c3.57,4.4,8.2,7.8,13.89,10.2c4.11,1.6,8.77,2.8,13.98,3.6c5.2,0.8,10.83,1.2,16.89,1.2
				c1.57,0,3.39-0.03,5.45-0.1c2.06-0.07,4.24-0.1,6.54-0.1c0-1.73,0.03-5.8,0.09-12.2
				C1636.15,487.78,1636.18,479.84,1636.18,470.37z"/>
			<path class="st7" d="M1795.42,539.79h-55.74c0-9.33,0.09-29.01,0.27-59.01s0.27-61.08,0.27-93.22c0-18.4-0.03-39.67-0.09-63.81
				c-0.06-24.14-0.21-49.88-0.45-77.22h55.74c-0.12,22.27-0.24,45.61-0.36,70.02c-0.12,24.41-0.18,47.28-0.18,68.62
				c0,34.68,0.09,65.21,0.27,91.62S1795.42,524.18,1795.42,539.79z"/>
			<path class="st7" d="M2127.14,326.94c-5.08,0-14.77-0.07-29.05-0.2c-14.28-0.13-31.53-0.2-51.75-0.2
				c-0.24,20.94-0.43,37.74-0.54,50.41c-0.12,12.67-0.18,29.08-0.18,49.21c0,22.81,0.09,44.84,0.27,66.12
				c0.18,21.27,0.33,37.11,0.45,47.51h-60.1c0.12-10,0.24-25.24,0.36-45.71c0.12-20.47,0.18-43.17,0.18-68.12
				c0-18.4,0-34.07,0-47.01c0-12.93-0.12-30.41-0.36-52.41c-19.85,0-37.58,0.07-53.2,0.2c-15.61,0.13-24.88,0.2-27.78,0.2v-54.61
				c9.44,0,24.87,0.03,46.3,0.1c21.42,0.07,42.79,0.1,64.09,0.1c24.57,0,48.08-0.03,70.54-0.1c22.45-0.07,36.04-0.1,40.76-0.1
				V326.94z"/>
			<path class="st7" d="M2335.21,437.97c0,15.47-2.66,30.24-7.99,44.31c-5.33,14.07-13.25,26.37-23.78,36.91
				c-8.84,8.8-18.88,15.37-30.14,19.7c-11.26,4.33-23.54,6.5-36.86,6.5c-12.95,0-25.18-2.17-36.68-6.5
				c-11.5-4.33-21.67-10.83-30.5-19.5c-10.17-10-18.01-22.14-23.51-36.41c-5.51-14.27-8.26-29.41-8.26-45.41
				c0-15.73,2.36-30.04,7.08-42.91c4.72-12.87,12.04-24.57,21.97-35.11c8.96-9.6,19.4-16.87,31.32-21.8
				c11.92-4.93,24.72-7.4,38.4-7.4c13.8,0,26.45,2.27,37.95,6.8c11.5,4.54,21.85,11.54,31.05,21
				c10.05,10.54,17.55,22.44,22.51,35.71C2332.73,407.13,2335.21,421.83,2335.21,437.97z M2279.83,438.77
				c0-9.47-1.3-18.87-3.9-28.21c-2.6-9.33-6.81-17.14-12.62-23.41c-3.39-3.73-7.44-6.57-12.17-8.5c-4.72-1.93-9.62-2.9-14.71-2.9
				c-6.05,0-11.29,1.03-15.71,3.1c-4.42,2.07-8.69,5.5-12.8,10.3c-4.84,5.47-8.56,12.67-11.17,21.61c-2.6,8.94-3.9,17.87-3.9,26.81
				c0,10.4,1.3,19.97,3.9,28.71c2.6,8.74,6.99,16.3,13.16,22.71c3.39,3.74,7.38,6.5,11.98,8.3c4.6,1.8,9.44,2.7,14.53,2.7
				c5.33,0,10.44-1.07,15.34-3.2c4.9-2.13,9.11-5.2,12.62-9.2c4.96-5.87,8.77-13.13,11.44-21.8
				C2278.5,457.1,2279.83,448.1,2279.83,438.77z"/>
			<path class="st7" d="M2552,539.79h-54.29v-19.4l-0.18-0.2c-8.71,5.34-19.58,10.87-32.59,16.6c-13.01,5.73-25.33,8.6-36.95,8.6
				c-17.67,0-31.38-5.73-41.12-17.2c-9.75-11.47-14.62-27.21-14.62-47.21c0-12.67,0.09-26.37,0.27-41.11
				c0.18-14.73,0.27-25.51,0.27-32.31c0-12.4-0.12-26.64-0.36-42.71c-0.24-16.07-0.36-25.84-0.36-29.31h55.74
				c0,3.33-0.09,12.64-0.27,27.91c-0.18,15.27-0.27,28.04-0.27,38.31c0,8.14,0.06,18.4,0.18,30.81c0.12,12.4,0.18,21.47,0.18,27.21
				c0.12,11.74,1.82,20.77,5.08,27.11c3.27,6.34,9.14,9.5,17.61,9.5c7.75,0,16.31-2.17,25.69-6.5c9.38-4.33,16.25-8.17,20.61-11.5
				c0-0.93,0.06-7.67,0.18-20.21c0.12-12.53,0.18-26.67,0.18-42.41c0-13.6-0.12-29.44-0.36-47.51c-0.24-18.07-0.36-28.97-0.36-32.71
				H2552c0,3.47-0.09,13.44-0.27,29.91c-0.18,16.47-0.27,37.51-0.27,63.11c0,17.74,0.06,33.58,0.18,47.51
				C2551.76,490.01,2551.88,511.25,2552,539.79z"/>
			<path class="st7" d="M2741.37,381.15c-9.93,3.34-21.06,7.54-33.41,12.6c-12.35,5.07-28.39,12.54-48.12,22.41
				c0,3.33-0.03,9.4-0.09,18.2c-0.06,8.8-0.09,17.74-0.09,26.81c0,14.14,0.12,29.94,0.36,47.41c0.24,17.47,0.36,27.88,0.36,31.21
				h-55.74c0-4,0.09-14,0.27-30.01s0.27-37.41,0.27-64.21c0-12.8-0.06-28.94-0.18-48.41c-0.12-19.47-0.24-40.01-0.36-61.61h54.47
				l-0.18,29.41l0.36,0.2c11.5-7.87,23.84-15.24,37.04-22.11c13.19-6.87,23.48-11.5,30.87-13.9L2741.37,381.15z"/>
		</g>
		<g>
			<path class="st7" d="M410.25,510.15c4.53,2.25,9.85,2.25,14.38,0c14.6-7.24,25.3-16.92,34.3-24.13
				c18.72-14.97,48.04-37.44,90.47-9.36c24.96,18.72,38.69,29.95,38.69,29.95l-0.62-116.68c0,0,1.25-9.98-7.49-19.34
				c-9.36-9.36-40.56-38.06-56.16-36.81l9.44-31.51c0,0,61.07,22.15,84.16,69.57c4.99,12.48,1.87,152.25,1.87,152.25
				s-0.62,31.2-31.82,18.09c-31.2-19.34-48.04-38.34-63.64-44.44c-15.6-6.1-20.59-2.98-30.57,2.63s-53.66,45.11-74.87,45.02h-1.88
				c-21.21,0.09-64.89-39.4-74.87-45.02s-14.97-8.74-30.57-2.63c-15.6,6.1-32.45,25.1-63.64,44.44
				c-31.2,13.1-31.82-18.09-31.82-18.09s-3.12-139.77,1.87-152.25c23.09-47.42,84.16-69.57,84.16-69.57l9.44,31.51
				c-15.6-1.25-46.8,27.45-56.16,36.81c-8.74,9.36-7.49,19.34-7.49,19.34l-0.62,116.68c0,0,13.73-11.23,38.69-29.95
				c42.43-28.08,71.76-5.62,90.47,9.36C384.95,493.23,395.65,502.91,410.25,510.15z"/>
			<path class="st7" d="M417.7,170.62L417.7,170.62c0-0.01-0.09-0.01-0.26,0c-0.17,0-0.26,0-0.26,0v0.01
				c-7.72,0.14-100.46,3.57-97.91,86.1c2.5,81.09,54.58,146.72,77.65,167.89c1.54,1.41,5.38,4.64,7.2,5.67
				c4.11,2.33,6.59,3.57,13.06,3.63v0.01c0.09,0,0.17,0,0.26,0c0.09,0,0.17,0,0.26,0v-0.01c6.47-0.06,8.96-1.3,13.06-3.63
				c1.82-1.03,5.66-4.26,7.2-5.67c23.07-21.17,75.15-86.8,77.65-167.89C518.16,174.19,425.42,170.76,417.7,170.62z M417.4,306.01
				c-27.22,0-49.29-22.07-49.29-49.29s22.07-49.29,49.29-49.29c27.22,0,49.29,22.07,49.29,49.29S444.62,306.01,417.4,306.01z"/>
		</g>
	</g>
</g>
</svg>
